<mxfile host="app.diagrams.net" modified="2023-12-07T13:52:18.904Z" agent="Mozilla/5.0 (Windows NT 10.0; Win64; x64) AppleWebKit/537.36 (KHTML, like Gecko) Chrome/119.0.0.0 Safari/537.36" etag="rVC7tSUtCAMMXYXlg4E-" version="22.1.7" type="device">
  <diagram name="Страница — 1" id="2GMdjVgji6GxfmeX41DG">
    <mxGraphModel dx="1050" dy="1831" grid="1" gridSize="10" guides="1" tooltips="1" connect="1" arrows="1" fold="1" page="1" pageScale="1" pageWidth="827" pageHeight="1169" math="0" shadow="0">
      <root>
        <mxCell id="0" />
        <mxCell id="1" parent="0" />
        <mxCell id="0UWA_CDsW8jT14f4uI8K-9" style="edgeStyle=orthogonalEdgeStyle;rounded=0;orthogonalLoop=1;jettySize=auto;html=1;" edge="1" parent="1" source="0UWA_CDsW8jT14f4uI8K-3" target="0UWA_CDsW8jT14f4uI8K-8">
          <mxGeometry relative="1" as="geometry" />
        </mxCell>
        <mxCell id="0UWA_CDsW8jT14f4uI8K-3" value="Начало" style="ellipse;whiteSpace=wrap;html=1;" vertex="1" parent="1">
          <mxGeometry x="349" y="-1169" width="120" height="39" as="geometry" />
        </mxCell>
        <mxCell id="0UWA_CDsW8jT14f4uI8K-11" style="edgeStyle=orthogonalEdgeStyle;rounded=0;orthogonalLoop=1;jettySize=auto;html=1;" edge="1" parent="1" source="0UWA_CDsW8jT14f4uI8K-8" target="0UWA_CDsW8jT14f4uI8K-10">
          <mxGeometry relative="1" as="geometry" />
        </mxCell>
        <mxCell id="0UWA_CDsW8jT14f4uI8K-8" value="ввод a,b" style="shape=parallelogram;perimeter=parallelogramPerimeter;whiteSpace=wrap;html=1;fixedSize=1;" vertex="1" parent="1">
          <mxGeometry x="349" y="-1110" width="120" height="60" as="geometry" />
        </mxCell>
        <mxCell id="0UWA_CDsW8jT14f4uI8K-13" style="edgeStyle=orthogonalEdgeStyle;rounded=0;orthogonalLoop=1;jettySize=auto;html=1;entryX=0.5;entryY=0;entryDx=0;entryDy=0;" edge="1" parent="1" source="0UWA_CDsW8jT14f4uI8K-10" target="0UWA_CDsW8jT14f4uI8K-12">
          <mxGeometry relative="1" as="geometry" />
        </mxCell>
        <mxCell id="0UWA_CDsW8jT14f4uI8K-10" value="k = 0" style="rounded=0;whiteSpace=wrap;html=1;" vertex="1" parent="1">
          <mxGeometry x="349" y="-1020" width="120" height="30" as="geometry" />
        </mxCell>
        <mxCell id="0UWA_CDsW8jT14f4uI8K-14" style="edgeStyle=orthogonalEdgeStyle;rounded=0;orthogonalLoop=1;jettySize=auto;html=1;" edge="1" parent="1" source="0UWA_CDsW8jT14f4uI8K-12">
          <mxGeometry relative="1" as="geometry">
            <mxPoint x="409" y="-870" as="targetPoint" />
          </mxGeometry>
        </mxCell>
        <mxCell id="0UWA_CDsW8jT14f4uI8K-17" value="True" style="edgeLabel;html=1;align=center;verticalAlign=middle;resizable=0;points=[];" vertex="1" connectable="0" parent="0UWA_CDsW8jT14f4uI8K-14">
          <mxGeometry x="-0.3905" y="-1" relative="1" as="geometry">
            <mxPoint x="-1" y="3" as="offset" />
          </mxGeometry>
        </mxCell>
        <mxCell id="0UWA_CDsW8jT14f4uI8K-19" style="edgeStyle=orthogonalEdgeStyle;rounded=0;orthogonalLoop=1;jettySize=auto;html=1;entryX=0.5;entryY=0;entryDx=0;entryDy=0;exitX=1;exitY=0.5;exitDx=0;exitDy=0;" edge="1" parent="1" source="0UWA_CDsW8jT14f4uI8K-12" target="0UWA_CDsW8jT14f4uI8K-18">
          <mxGeometry relative="1" as="geometry">
            <Array as="points">
              <mxPoint x="510" y="-930" />
              <mxPoint x="510" y="-780" />
              <mxPoint x="425" y="-780" />
            </Array>
          </mxGeometry>
        </mxCell>
        <mxCell id="0UWA_CDsW8jT14f4uI8K-25" value="False" style="edgeLabel;html=1;align=center;verticalAlign=middle;resizable=0;points=[];" vertex="1" connectable="0" parent="0UWA_CDsW8jT14f4uI8K-19">
          <mxGeometry x="-0.9128" y="-1" relative="1" as="geometry">
            <mxPoint x="2" as="offset" />
          </mxGeometry>
        </mxCell>
        <mxCell id="0UWA_CDsW8jT14f4uI8K-12" value="a&amp;lt;b" style="rhombus;whiteSpace=wrap;html=1;" vertex="1" parent="1">
          <mxGeometry x="369" y="-970" width="80" height="80" as="geometry" />
        </mxCell>
        <mxCell id="0UWA_CDsW8jT14f4uI8K-16" style="edgeStyle=orthogonalEdgeStyle;rounded=0;orthogonalLoop=1;jettySize=auto;html=1;entryX=0.5;entryY=0;entryDx=0;entryDy=0;exitX=0.5;exitY=1;exitDx=0;exitDy=0;" edge="1" parent="1" source="0UWA_CDsW8jT14f4uI8K-15" target="0UWA_CDsW8jT14f4uI8K-12">
          <mxGeometry relative="1" as="geometry">
            <Array as="points">
              <mxPoint x="425" y="-790" />
              <mxPoint x="329" y="-790" />
              <mxPoint x="329" y="-980" />
              <mxPoint x="409" y="-980" />
            </Array>
          </mxGeometry>
        </mxCell>
        <mxCell id="0UWA_CDsW8jT14f4uI8K-15" value="k &lt;span style=&quot;color: rgb(102, 102, 0); font-family: monospace; font-size: 13.2px; text-align: left; background-color: rgb(239, 240, 241);&quot; class=&quot;pun&quot;&gt;+=&lt;/span&gt;&lt;span style=&quot;font-family: monospace; font-size: 13.2px; text-align: left; background-color: rgb(239, 240, 241);&quot; class=&quot;pln&quot;&gt; &lt;/span&gt;&lt;span style=&quot;color: rgb(0, 102, 102); font-family: monospace; font-size: 13.2px; text-align: left; background-color: rgb(239, 240, 241);&quot; class=&quot;lit&quot;&gt;1&lt;/span&gt;&lt;span style=&quot;font-family: monospace; font-size: 13.2px; text-align: left; background-color: rgb(239, 240, 241);&quot; class=&quot;pln&quot;&gt; &lt;/span&gt;&lt;span style=&quot;color: rgb(102, 102, 0); font-family: monospace; font-size: 13.2px; text-align: left; background-color: rgb(239, 240, 241);&quot; class=&quot;pun&quot;&gt;+&lt;/span&gt;&lt;span style=&quot;font-family: monospace; font-size: 13.2px; text-align: left; background-color: rgb(239, 240, 241);&quot; class=&quot;pln&quot;&gt; &lt;/span&gt;&lt;span style=&quot;color: rgb(102, 102, 0); font-family: monospace; font-size: 13.2px; text-align: left; background-color: rgb(239, 240, 241);&quot; class=&quot;pun&quot;&gt;(&lt;/span&gt;&lt;span style=&quot;font-family: monospace; font-size: 13.2px; text-align: left; background-color: rgb(239, 240, 241);&quot; class=&quot;pln&quot;&gt;b &lt;/span&gt;&lt;span style=&quot;color: rgb(102, 102, 0); font-family: monospace; font-size: 13.2px; text-align: left; background-color: rgb(239, 240, 241);&quot; class=&quot;pun&quot;&gt;%&lt;/span&gt;&lt;span style=&quot;font-family: monospace; font-size: 13.2px; text-align: left; background-color: rgb(239, 240, 241);&quot; class=&quot;pln&quot;&gt; &lt;/span&gt;&lt;span style=&quot;color: rgb(0, 102, 102); font-family: monospace; font-size: 13.2px; text-align: left; background-color: rgb(239, 240, 241);&quot; class=&quot;lit&quot;&gt;2&lt;/span&gt;&lt;span style=&quot;color: rgb(102, 102, 0); font-family: monospace; font-size: 13.2px; text-align: left; background-color: rgb(239, 240, 241);&quot; class=&quot;pun&quot;&gt;)&lt;br&gt;b &lt;span style=&quot;&quot; class=&quot;pun&quot;&gt;=&lt;/span&gt;&lt;span style=&quot;color: rgb(0, 0, 0);&quot; class=&quot;pln&quot;&gt; &lt;/span&gt;&lt;span style=&quot;&quot; class=&quot;pun&quot;&gt;(&lt;/span&gt;&lt;span style=&quot;color: rgb(0, 0, 0);&quot; class=&quot;pln&quot;&gt;b &lt;/span&gt;&lt;span style=&quot;&quot; class=&quot;pun&quot;&gt;+&lt;/span&gt;&lt;span style=&quot;color: rgb(0, 0, 0);&quot; class=&quot;pln&quot;&gt; b &lt;/span&gt;&lt;span style=&quot;&quot; class=&quot;pun&quot;&gt;%&lt;/span&gt;&lt;span style=&quot;color: rgb(0, 0, 0);&quot; class=&quot;pln&quot;&gt; &lt;/span&gt;&lt;span style=&quot;color: rgb(0, 102, 102);&quot; class=&quot;lit&quot;&gt;2&lt;/span&gt;&lt;span style=&quot;&quot; class=&quot;pun&quot;&gt;)&lt;/span&gt;&lt;span style=&quot;color: rgb(0, 0, 0);&quot; class=&quot;pln&quot;&gt; &lt;/span&gt;&lt;span style=&quot;&quot; class=&quot;pun&quot;&gt;//&lt;/span&gt;&lt;span style=&quot;color: rgb(0, 0, 0);&quot; class=&quot;pln&quot;&gt; &lt;/span&gt;&lt;span style=&quot;color: rgb(0, 102, 102);&quot; class=&quot;lit&quot;&gt;2&lt;/span&gt;&lt;br&gt;&lt;/span&gt;" style="rounded=0;whiteSpace=wrap;html=1;" vertex="1" parent="1">
          <mxGeometry x="349" y="-870" width="151" height="60" as="geometry" />
        </mxCell>
        <mxCell id="0UWA_CDsW8jT14f4uI8K-21" style="edgeStyle=orthogonalEdgeStyle;rounded=0;orthogonalLoop=1;jettySize=auto;html=1;" edge="1" parent="1" source="0UWA_CDsW8jT14f4uI8K-18">
          <mxGeometry relative="1" as="geometry">
            <mxPoint x="424.5" y="-690" as="targetPoint" />
          </mxGeometry>
        </mxCell>
        <mxCell id="0UWA_CDsW8jT14f4uI8K-18" value="&lt;ol style=&quot;margin: 0px; padding: 0px; list-style: none; font-family: monospace; font-size: 13.2px; text-align: left; background-color: rgb(239, 240, 241);&quot; class=&quot;linenums&quot;&gt;&lt;li style=&quot;margin: 0px; padding: 0px; list-style-type: none;&quot; class=&quot;L5&quot;&gt;r &lt;span style=&quot;color: rgb(102, 102, 0);&quot; class=&quot;pun&quot;&gt;=(&lt;/span&gt;&lt;span class=&quot;pln&quot;&gt;k &lt;/span&gt;&lt;span style=&quot;color: rgb(102, 102, 0);&quot; class=&quot;pun&quot;&gt;+&lt;/span&gt;&lt;span class=&quot;pln&quot;&gt; a &lt;/span&gt;&lt;span style=&quot;color: rgb(102, 102, 0);&quot; class=&quot;pun&quot;&gt;-&lt;/span&gt;&lt;span class=&quot;pln&quot;&gt; b&lt;/span&gt;&lt;span style=&quot;color: rgb(102, 102, 0);&quot; class=&quot;pun&quot;&gt;)&lt;/span&gt;&lt;/li&gt;&lt;/ol&gt;" style="rounded=0;whiteSpace=wrap;html=1;" vertex="1" parent="1">
          <mxGeometry x="364.5" y="-760" width="120" height="40" as="geometry" />
        </mxCell>
        <mxCell id="0UWA_CDsW8jT14f4uI8K-24" style="edgeStyle=orthogonalEdgeStyle;rounded=0;orthogonalLoop=1;jettySize=auto;html=1;entryX=0.5;entryY=0;entryDx=0;entryDy=0;" edge="1" parent="1" source="0UWA_CDsW8jT14f4uI8K-20" target="0UWA_CDsW8jT14f4uI8K-22">
          <mxGeometry relative="1" as="geometry" />
        </mxCell>
        <mxCell id="0UWA_CDsW8jT14f4uI8K-20" value="вывод r" style="shape=parallelogram;perimeter=parallelogramPerimeter;whiteSpace=wrap;html=1;fixedSize=1;" vertex="1" parent="1">
          <mxGeometry x="364.5" y="-690" width="120" height="60" as="geometry" />
        </mxCell>
        <mxCell id="0UWA_CDsW8jT14f4uI8K-22" value="Конец" style="ellipse;whiteSpace=wrap;html=1;" vertex="1" parent="1">
          <mxGeometry x="364.5" y="-610" width="120" height="39" as="geometry" />
        </mxCell>
      </root>
    </mxGraphModel>
  </diagram>
</mxfile>
